<svg width="18" height="18" fill="currentcolor" xmlns="http://www.w3.org/2000/svg"><path d="M14.4633 13.6618c.1056.1066.1649.2506.1649.4007s-.0593.2942-.1649.4008c-.1075.104-.2513.1621-.4008.1621-.1496 0-.2933-.0581-.4008-.1621L8.99999 9.79457 4.33827 14.4633c-.10751.104-.25122.1621-.40078.1621-.14956 0-.29326-.0581-.40078-.1621-.10563-.1066-.16488-.2507-.16488-.4008s.05925-.2941.16488-.4007l4.66875-4.66176-4.66875-4.66172c-.0897-.10929-.13554-.24804-.1286-.38926.00693-.14121.06615-.2748.16612-.37478.09998-.09997.23357-.15919.37478-.16612.14122-.00694.27997.0389.38926.1286l4.66172 4.66875 4.66171-4.66875c.1093-.0897.248-.13554.3893-.1286.1412.00693.2748.06615.3747.16612.1.09998.1592.23357.1662.37478.0069.14122-.0389.27997-.1286.38926L9.79452 9.00004l4.66878 4.66176Z"/></svg>